<?xml version="1.0" standalone="no"?>
<!DOCTYPE svg PUBLIC "-//W3C//DTD SVG 20010904//EN"
 "http://www.w3.org/TR/2001/REC-SVG-20010904/DTD/svg10.dtd">
<svg version="1.0" xmlns="http://www.w3.org/2000/svg"
 width="72.000000pt" height="72.000000pt" viewBox="0 0 72.000000 72.000000"
 preserveAspectRatio="xMidYMid meet">
<metadata>
Created by potrace 1.11, written by Peter Selinger 2001-2013
</metadata>
<g transform="translate(0.000000,72.000000) scale(0.100000,-0.100000)"
fill="#000000" stroke="none">
<path d="M318 673 c7 -3 16 -2 19 1 4 3 -2 6 -13 5 -11 0 -14 -3 -6 -6z"/>
<path d="M398 673 c7 -3 16 -2 19 1 4 3 -2 6 -13 5 -11 0 -14 -3 -6 -6z"/>
<path d="M153 554 c-26 -11 -12 -19 35 -19 26 0 61 -4 77 -8 28 -8 29 -7 13 9
-16 17 -101 29 -125 18z"/>
<path d="M447 508 c-16 -12 -8 -13 57 -13 82 0 88 15 9 22 -31 3 -54 0 -66 -9z"/>
<path d="M165 470 c-37 -41 -13 -102 39 -102 58 0 86 62 46 102 -25 25 -62 26
-85 0z m76 -23 c-13 -13 -26 -3 -16 12 3 6 11 8 17 5 6 -4 6 -10 -1 -17z"/>
<path d="M454 445 c-21 -32 -11 -72 22 -87 58 -27 114 35 80 87 -23 35 -79 35
-102 0z m86 -5 c0 -5 -7 -10 -15 -10 -8 0 -15 5 -15 10 0 6 7 10 15 10 8 0 15
-4 15 -10z"/>
<path d="M43 360 c0 -25 2 -35 4 -22 2 12 2 32 0 45 -2 12 -4 2 -4 -23z"/>
<path d="M672 310 c0 -14 2 -19 5 -12 2 6 2 18 0 25 -3 6 -5 1 -5 -13z"/>
<path d="M275 265 l-30 -14 30 7 c50 11 119 7 163 -11 55 -22 54 -12 0 13 -50
23 -121 25 -163 5z"/>
<path d="M656 255 c-9 -26 -7 -32 5 -12 6 10 9 21 6 23 -2 3 -7 -2 -11 -11z"/>
<path d="M60 251 c0 -6 4 -13 10 -16 6 -3 7 1 4 9 -7 18 -14 21 -14 7z"/>
<path d="M210 215 c0 -19 4 -35 8 -35 4 0 6 16 4 35 -2 19 -6 35 -8 35 -2 0
-4 -16 -4 -35z"/>
<path d="M161 214 c0 -11 -9 -29 -20 -38 -18 -16 -20 -16 -40 11 -21 27 -21
26 1 -14 13 -23 25 -37 27 -30 2 6 12 22 23 34 11 11 18 29 15 40 -4 16 -5 15
-6 -3z"/>
<path d="M305 215 c-39 -17 -21 -18 25 0 19 7 28 14 20 14 -8 0 -28 -6 -45
-14z"/>
<path d="M636 203 c-6 -14 -5 -15 5 -6 7 7 10 15 7 18 -3 3 -9 -2 -12 -12z"/>
<path d="M248 193 c7 -3 16 -2 19 1 4 3 -2 6 -13 5 -11 0 -14 -3 -6 -6z"/>
<path d="M296 161 c-33 -14 -37 -19 -22 -24 11 -4 16 -13 12 -22 -3 -8 -1 -17
4 -20 5 -3 8 -19 6 -35 l-3 -30 76 4 c104 5 194 49 242 119 22 30 20 30 -23
-9 -73 -67 -133 -94 -210 -94 -36 0 -48 4 -48 15 0 8 -4 15 -8 15 -4 0 -13 13
-19 30 -10 27 -9 31 21 49 38 25 25 26 -28 2z"/>
</g>
</svg>
